<svg width="500" height="530" xmlns="http://www.w3.org/2000/svg"><g><g><path id="basilan" class="feature data" style="fill: #88419D;" d="M250.053771732373,473.34583458345855L254.82153200278134,470.3955395539556L261.59677028178265,476.746174617462L260.8081182069783,481.3966396639666L251.73861934672783,483.3968396839686L248.36892411801819,479.796479647965Z"></path><path id="lanao_del_sur" class="feature data" style="fill: #88419D;" d="M360.2858230970769,437.0922092209223L347.48815079229666,435.34203420342055L337.19982599825767,444.34293429342955L330.42458771925635,435.8920892089211L322.39467568488436,433.4918491849187L329.16991396388573,433.64186418641884L335.7300653133949,421.1906190619064L348.52773761817514,416.44014401440165L352.0408241332128,419.1904190419044L353.15210660225546,427.54125412541276Z"></path><path id="maguindanao" class="feature data" style="fill: #88419D;" d="M368.9968437415072,470.795579557956L362.54423585674397,473.5958595859588L354.8728020381923,464.5949594959498L349.1013027634874,470.795579557956L330.9981528645686,469.34543454345453L328.16617495958917,461.2946294629465L335.51497838390276,453.0938093809383L337.5583042140778,450.2935293529355L337.19982599825767,444.34293429342955L347.48815079229666,435.34203420342055L348.312650688683,443.14281428142834L344.9071076383914,448.59335933593377L346.26932485850807,456.794179417942L354.08414996338786,462.1947194719474L360.1782796323308,455.9940994099412L361.5404968524475,468.2953295329535Z"></path><path id="sulu" class="feature data" style="fill: #88419D;" d="M217.57564537906512,494.9979997999802L222.45094911421953,500.2985298529855L212.70034164391075,502.54875487548776L211.69660263961424,497.3982398239826Z"></path><path id="abra" class="feature data" style="fill: #88419D;" d="M219.36803645816602,51.50365036503673L211.69660263961424,68.70537053705394L209.7608202741853,70.85558555855607L197.32162618522523,64.20492049204944L194.48964828024583,58.80438043804403L197.21408272047915,51.00360036003623L198.43290865426775,47.70327032703293L212.12677649859847,40.802580258026026Z"></path><path id="apayao" class="feature data" style="fill: #88419D;" d="M232.0581652982002,51.00360036003623L219.36803645816602,51.50365036503673L212.12677649859847,40.802580258026026L213.3814502539691,22.30073007300753L218.04166705963135,21.10061006100633L232.73927390825855,27.701270127012926L232.4166435140204,37.25222522252248L227.43379631411995,45.05300530053028Z"></path><path id="benguet" class="feature data" style="fill: #88419D;" d="M211.12303749430197,92.90779077907813L210.65701581373574,99.25842584258449L205.35153821959716,108.40934093409363L196.74806103991295,106.95919591959218L194.48964828024583,97.00820082008224L199.1140172643261,91.05760576057628L201.1573430945011,82.35673567356758L206.60621197496778,80.75657565756597L210.22684195475154,84.20692069206943Z"></path><path id="ifugao" class="feature data" style="fill: #88419D;" d="M227.43379631411995,86.55715571557178L225.82064434292917,90.15751575157537L211.12303749430197,92.90779077907813L210.22684195475154,84.20692069206943L213.95501539928136,77.70627062706293L236.3599038880423,74.95599559956018L237.25609942759274,80.90659065906613Z"></path><path id="kalinga" class="feature data" style="fill: #88419D;" d="M240.33901208364625,57.85428542854308L235.78633874273004,68.30533053305354L227.64888324361206,68.05530553055328L220.73025367828268,71.60566056605683L211.69660263961424,68.70537053705394L219.36803645816602,51.50365036503673L232.0581652982002,51.00360036003623Z"></path><path id="mountain_province" class="feature data" style="fill: #88419D;" d="M236.3599038880423,74.95599559956018L213.95501539928136,77.70627062706293L210.22684195475154,84.20692069206943L206.60621197496778,80.75657565756597L209.7608202741853,70.85558555855607L211.69660263961424,68.70537053705394L220.73025367828268,71.60566056605683L227.64888324361206,68.05530553055328L235.78633874273004,68.30533053305354Z"></path><path id="ilocos_norte" class="feature data" style="fill: #88419D;" d="M213.95501539928136,17.400240024002628L213.3814502539691,22.30073007300753L212.12677649859847,40.802580258026026L198.43290865426775,47.70327032703293L197.21408272047915,51.00360036003623L193.70099620544147,43.202820282028426L194.70473520973795,36.15211521152138L199.6875824096384,26.501150115011725L198.21782172477566,21.10061006100633L209.07971166412696,15.000000000000227Z"></path><path id="ilocos_sur" class="feature data" style="fill: #88419D;" d="M197.21408272047915,51.00360036003623L194.48964828024583,58.80438043804403L197.32162618522523,64.20492049204944L209.7608202741853,70.85558555855607L206.60621197496778,80.75657565756597L201.1573430945011,82.35673567356758L199.1140172643261,91.05760576057628L196.4254306456748,80.90659065906613L192.44632245007085,80.90659065906613L192.23123552057874,69.75547554755498L194.13117006442565,62.104710471047326L189.82943147458354,55.75407540754098L193.70099620544147,43.202820282028426Z"></path><path id="la_union" class="feature data" style="fill: #88419D;" d="M199.1140172643261,91.05760576057628L194.48964828024583,97.00820082008224L196.74806103991295,106.95919591959218L192.80480066589104,108.25932593259348L189.97282276091164,104.70897089708993L188.35967078972084,91.20762076207643L192.44632245007085,80.90659065906613L196.4254306456748,80.90659065906613Z"></path><path id="pangasinan" class="feature data" style="fill: #88419D;" d="M192.80480066589104,108.25932593259348L196.74806103991295,106.95919591959218L205.35153821959716,108.40934093409363L209.7608202741853,112.10971097109733L209.07971166412696,122.46074607460768L200.04606062545855,122.46074607460768L191.55012691052042,125.06100610061029L186.56727971061997,130.6615661566159L181.90706290495768,122.71077107710794L172.65832493679716,123.61086108610883L166.88682566209235,117.41024102410263L167.4245429858226,108.55935593559379L173.98469433533182,106.70917091709192L186.4597362458739,114.75997599759998Z"></path><path id="cagayan" class="feature data" style="fill: #88419D;" d="M260.4854878127401,56.55415541554178L240.33901208364625,57.85428542854308L232.0581652982002,51.00360036003623L227.43379631411995,45.05300530053028L232.4166435140204,37.25222522252248L232.73927390825855,27.701270127012926L218.04166705963135,21.10061006100633L213.3814502539691,22.30073007300753L213.95501539928136,17.400240024002628L218.57938438336163,15.650065006500878L239.08433832827563,25.701070107010928L253.35177131791863,28.50135013501373L261.48922681703664,19.650465046504877L265.79096540687874,29.151415141514377L259.66098791635375,37.10221022102233L258.4421619825651,47.15321532153238Z"></path><path id="isabela" class="feature data" style="fill: #88419D;" d="M263.96272650619585,95.05800580058028L257.7610533725068,95.05800580058028L243.60116384760985,100.75857585758598L235.78633874273004,91.45764576457668L230.0148394680252,91.20762076207643L227.43379631411995,86.55715571557178L237.25609942759274,80.90659065906613L236.3599038880423,74.95599559956018L235.78633874273004,68.30533053305354L240.33901208364625,57.85428542854308L260.4854878127401,56.55415541554178L262.85144403715327,63.70487048704893L268.73048677660415,66.60516051605182L273.03222536644626,73.60586058605884Z"></path><path id="nueva_vizcaya" class="feature data" style="fill: #88419D;" d="M230.0148394680252,91.20762076207643L225.96403562925724,105.35903590359058L227.07531809829976,114.60996099609983L232.63173044351248,119.66046604660488L226.07157909400328,125.61106110611084L222.09247089839934,113.55985598559879L215.31723261939803,110.90959095909614L209.7608202741853,112.10971097109733L205.35153821959716,108.40934093409363L210.65701581373574,99.25842584258449L211.12303749430197,92.90779077907813L225.82064434292917,90.15751575157537L227.43379631411995,86.55715571557178Z"></path><path id="quirino" class="feature data" style="fill: #88419D;" d="M230.0148394680252,91.20762076207643L235.78633874273004,91.45764576457668L243.60116384760985,100.75857585758598L257.7610533725068,95.05800580058028L246.7916199684094,107.10921092109233L232.63173044351248,119.66046604660488L227.07531809829976,114.60996099609983L225.96403562925724,105.35903590359058Z"></path><path id="aurora" class="feature data" style="fill: #88419D;" d="M263.96272650619585,95.05800580058028L261.1307486012164,107.10921092109233L243.13514216704363,113.55985598559879L236.25236042329627,120.31053105310554L239.29942525776775,126.81118111811203L229.2261873932208,140.9625962596262L231.26951322339582,146.36313631363157L227.86397017310415,154.4639463946397L226.5017529529875,147.16321632163238L229.2261873932208,136.46214621462167L226.07157909400328,125.61106110611084L232.63173044351248,119.66046604660488L246.7916199684094,107.10921092109233L257.7610533725068,95.05800580058028Z"></path><path id="bataan" class="feature data" style="fill: #88419D;" d="M198.43290865426775,159.764476447645L200.15360409020462,173.2658265826585L186.4597362458739,166.36513651365158L188.03704039548268,162.01470147014723L194.02362659967963,156.16411641164137Z"></path><path id="bulacan" class="feature data" style="fill: #88419D;" d="M226.5017529529875,147.16321632163238L227.86397017310415,154.4639463946397L227.86397017310415,158.41434143414364L219.83405813873225,162.91479147914814L218.83031913443574,163.1648164816484L211.44566788854013,165.71507150715092L202.41201684987172,163.1648164816484L213.3814502539691,152.06370637063728L212.95127639498486,145.71307130713095L220.51516674879056,143.86288628862908Z"></path><path id="nueva_ecija" class="feature data" style="fill: #88419D;" d="M226.07157909400328,125.61106110611084L229.2261873932208,136.46214621462167L226.5017529529875,147.16321632163238L220.51516674879056,143.86288628862908L212.95127639498486,145.71307130713095L206.03264682965548,143.76287628762898L205.92510336490943,138.06230623062328L200.04606062545855,122.46074607460768L209.07971166412696,122.46074607460768L209.7608202741853,112.10971097109733L215.31723261939803,110.90959095909614L222.09247089839934,113.55985598559879Z"></path><path id="pampanga" class="feature data" style="fill: #88419D;" d="M206.03264682965548,143.76287628762898L212.95127639498486,145.71307130713095L213.3814502539691,152.06370637063728L202.41201684987172,163.1648164816484L198.43290865426775,159.764476447645L194.02362659967963,156.16411641164137L191.08410522995416,147.71327132713293L197.07069143415112,144.6629662966299Z"></path><path id="tarlac" class="feature data" style="fill: #88419D;" d="M206.03264682965548,143.76287628762898L197.07069143415112,144.6629662966299L191.08410522995416,147.71327132713293L182.83910626609014,140.31253125312554L186.56727971061997,130.6615661566159L191.55012691052042,125.06100610061029L200.04606062545855,122.46074607460768L205.92510336490943,138.06230623062328Z"></path><path id="zambales" class="feature data" style="fill: #88419D;" d="M186.56727971061997,130.6615661566159L182.83910626609014,140.31253125312554L191.08410522995416,147.71327132713293L194.02362659967963,156.16411641164137L188.03704039548268,162.01470147014723L183.5202148761485,163.9648964896492L178.8599980704862,159.0644064406443L177.28269392087742,144.2629262926295L172.76586840154323,138.06230623062328L175.23936809070244,135.01200120012024L172.65832493679716,123.61086108610883L181.90706290495768,122.71077107710794Z"></path><path id="batangas" class="feature data" style="fill: #88419D;" d="M200.26114755495067,184.21692169216942L212.8078851086568,189.36743674367457L216.57190637476864,187.01720172017224L222.09247089839934,187.41724172417264L224.81690533863267,194.01790179017922L232.27325222769232,199.71847184718493L225.96403562925724,208.01930193019322L217.79073230855724,207.11921192119235L215.99834122945634,201.2686268626865L210.44192888424365,196.2681268126815L200.26114755495067,194.01790179017922Z"></path><path id="cavite" class="feature data" style="fill: #88419D;" d="M213.8474719345353,174.41594159415965L215.20968915465198,179.21642164216445L216.57190637476864,187.01720172017224L212.8078851086568,189.36743674367457L200.26114755495067,184.21692169216942Z"></path><path id="laguna" class="feature data" style="fill: #88419D;" d="M224.81690533863267,194.01790179017922L222.09247089839934,187.41724172417264L216.57190637476864,187.01720172017224L215.20968915465198,179.21642164216445L217.1096236984989,178.01630163016324L226.07157909400328,185.26702670267048L229.7997525385331,179.46644664466467L232.52418697876644,170.71557155715593L238.9767948635296,182.3667366736676L233.0619043024967,190.31753175317553Z"></path><path id="quezon" class="feature data" style="fill: #88419D;" d="M231.26951322339582,146.36313631363157L237.82966457290505,160.81458145814602L239.1918817930217,175.11601160116032L243.2785334533717,187.11721172117234L250.16131519711905,192.6677667766779L262.4929658213331,196.01810181018124L265.1098567968204,188.71737173717395L270.09270399672084,187.01720172017224L283.5714849115594,192.1677167716774L274.0359643707427,194.66796679667988L272.02848636214975,206.5691569156918L278.69618117640505,215.0700070007003L279.80746364544757,222.47074707470767L275.97174673617167,224.9709970997102L268.515399847112,211.0696069606963L261.95524849760284,208.16931693169337L257.8685968372528,202.0687068706873L243.4936203828638,194.01790179017922L232.27325222769232,199.71847184718493L224.81690533863267,194.01790179017922L233.0619043024967,190.31753175317553L238.9767948635296,182.3667366736676L232.52418697876644,170.71557155715593L227.86397017310415,158.41434143414364L227.86397017310415,154.4639463946397Z"></path><path id="rizal" class="feature data" style="fill: #88419D;" d="M219.1529495286739,172.4657465746577L218.7227756696897,171.76567656765698L219.83405813873225,162.91479147914814L227.86397017310415,158.41434143414364L232.52418697876644,170.71557155715593L229.7997525385331,179.46644664466467L227.18286156304583,174.81598159816002Z"></path><path id="marinduque" class="feature data" style="fill: #88419D;" d="M248.36892411801819,209.51945194519473L253.56685824741072,210.01950195019523L258.54970544731117,216.770177017702L254.24796685746907,223.52085208520873L247.7953589727059,219.9704970497052Z"></path><path id="occidental_mindoro" class="feature data" style="fill: #88419D;" d="M210.5494723489897,211.769676967697L206.60621197496778,220.3705370537056L224.02825326382828,229.07140714071429L224.4942749443945,261.0746074607463L219.61897120924013,259.9244924492451L207.2873205850261,241.27262726272647L205.8175599001634,230.6715671567159L197.4291696499713,222.0707070707073L194.13117006442565,214.76997699769998Z"></path><path id="oriental_mindoro" class="feature data" style="fill: #88419D;" d="M224.4942749443945,261.0746074607463L224.02825326382828,229.07140714071429L206.60621197496778,220.3705370537056L210.5494723489897,211.769676967697L226.5017529529875,217.57025702570277L234.42412152261338,228.42134213421363L233.20529558882478,239.6724672467249L236.25236042329627,246.02310231023122Z"></path><path id="palawan" class="feature data" style="fill: #88419D;" d="M147.3856107214748,309.779477947795L154.41178375155025,305.52905290529077L154.6627185026244,294.1779177917794L159.39463095145067,295.0780078007803L156.67019651121734,303.5788578857888L157.02867472703753,312.1797179717974L165.7396953714678,325.78107810781097L160.075739561509,331.23162316231645L152.2609144566292,332.43174317431766L145.48567617762788,344.0329032903292L128.9598304283178,348.53335333533374L129.64093903837613,356.3841384138416L119.10167949326299,372.78577857785797L106.877572333795,378.03630363036325L100.3174209842858,388.787378737874L90.7102048003051,396.1881188118814L83.57648830548362,396.9881988198822L80.95959732999634,403.73887388738893L70.77881600070336,402.2887288728875L75.40318498478362,394.5879587958798L87.6272921442516,381.3866386638666L97.16281268506826,374.0859085908593L100.3174209842858,375.03600360036023L116.84326673359588,356.63416341634183L119.67524463857526,355.0340034003402L131.11069972323884,338.63236323632384L135.84261217206517,337.9822982298232L138.1368727533143,330.6815681568159L145.48567617762788,328.9813981398142L150.4685233775283,323.2808280828085ZM172.98095533103532,256.7241724172419L183.05419319558226,264.52495249524975L177.3902373856235,269.4254425442547L170.93762950086034,259.9244924492451Z"></path><path id="romblon" class="feature data" style="fill: #88419D;" d="M257.65350990776074,243.3728372837286L256.9724012977024,255.12401240124035L251.20090202299758,258.07430743074326L253.35177131791863,246.02310231023122Z"></path><path id="zamboanga_del_norte" class="feature data" style="fill: #88419D;" d="M312.5365247498296,398.2883288328835L312.5365247498296,414.03990399039924L299.16528729973703,413.13981398139833L298.05400483069445,422.3907390739076L288.3033973603857,425.14101410141035L278.4810942469129,424.8909890989101L266.9380956975033,431.8916891689171L261.48922681703664,442.8927892789281L256.29129268764405,454.79397939794L249.26511965756862,455.1940194019404L253.45931478266468,450.14351435143533L258.3346185178191,435.74207420742096L257.65350990776074,430.7415741574159L266.47207401693703,420.39053905390557L288.19585389563963,416.6901690169019L288.98450597044405,410.3395339533956L293.8598097055984,402.3887388738876L303.0368520305949,402.1387138713873L307.76876447942124,394.73797379737994Z"></path><path id="zamboanga_del_sur" class="feature data" style="fill: #88419D;" d="M266.47207401693703,443.04280428042824L263.17407443139143,455.74407440744096L257.18748822719454,464.9949994999502L250.053771732373,460.9945994599462L249.26511965756862,455.1940194019404L256.29129268764405,454.79397939794L261.48922681703664,442.8927892789281ZM312.5365247498296,414.03990399039924L316.26469819435937,421.1906190619064L316.8382633396717,423.6908690869089L314.00628543469224,428.0913091309133L309.13098169953787,429.3914391439146L309.34606862903,435.9920992099212L302.4632868852826,442.8927892789281L295.4371138552072,433.4918491849187L295.00693999622297,429.3914391439146L288.3033973603857,425.14101410141035L298.05400483069445,422.3907390739076L299.16528729973703,413.13981398139833Z"></path><path id="zamboanga_sibugay" class="feature data" style="fill: #88419D;" d="M288.3033973603857,425.14101410141035L295.00693999622297,429.3914391439146L295.4371138552072,433.4918491849187L290.81274487112694,442.4927492749277L283.4280936252313,437.74227422742297L280.84705047132604,430.7415741574159L272.8171384369541,433.8918891889191L271.8850950758217,439.19241924192437L266.47207401693703,443.04280428042824L261.48922681703664,442.8927892789281L266.9380956975033,431.8916891689171L278.4810942469129,424.8909890989101Z"></path><path id="ncr_1_dist" class="feature data" style="fill: #88419D;" d="M214.63612400933968,168.21532153215344L215.53231954889014,170.31553155315552L214.4210370798476,171.11561156115633L213.27390678922302,168.3653365336536Z"></path><path id="ncr_2_dist" class="feature data" style="fill: #88419D;" d="M219.83405813873225,162.91479147914814L218.7227756696897,171.76567656765698L215.53231954889014,170.31553155315552L214.63612400933968,168.21532153215344L218.83031913443574,163.1648164816484Z"></path><path id="ncr_3_dist" class="feature data" style="fill: #88419D;" d="M218.83031913443574,163.1648164816484L214.63612400933968,168.21532153215344L213.27390678922302,168.3653365336536L211.44566788854013,165.71507150715092Z"></path><path id="ncr_4_dist" class="feature data" style="fill: #88419D;" d="M218.7227756696897,171.76567656765698L219.1529495286739,172.4657465746577L217.1096236984989,178.01630163016324L215.20968915465198,179.21642164216445L213.8474719345353,174.41594159415965L214.4210370798476,171.11561156115633L215.53231954889014,170.31553155315552Z"></path><path id="albay" class="feature data" style="fill: #88419D;" d="M327.4850663495308,226.42114211421165L326.3379360589063,229.32143214321454L309.70454684485014,231.72167216721695L303.0368520305949,229.07140714071429L302.6783738147748,221.2706270627065L313.79119850520016,215.72007200720094L314.4723071152585,210.6695669566959L321.570175788498,221.6706670667069Z"></path><path id="camarines_norte" class="feature data" style="fill: #88419D;" d="M293.1787010955401,200.11851185118533L283.5714849115594,192.1677167716774L270.09270399672084,187.01720172017224L265.1098567968204,188.71737173717395L272.56620368588005,179.46644664466467L285.5789629201524,181.86668666866709L294.4333748509107,193.21782178217845Z"></path><path id="camarines_sur" class="feature data" style="fill: #88419D;" d="M314.4723071152585,210.6695669566959L313.79119850520016,215.72007200720094L302.6783738147748,221.2706270627065L297.4804396853822,213.46984698469868L284.4676804511098,206.1691169116914L285.0412455964221,202.61876187618785L274.0359643707427,194.66796679667988L283.5714849115594,192.1677167716774L293.1787010955401,200.11851185118533L299.6313089803033,203.01880188018825L308.4498730894795,194.66796679667988L325.08326230353566,199.96849684968518L322.0361974690642,204.61896189618983L313.79119850520016,203.01880188018825Z"></path><path id="catanduanes" class="feature data" style="fill: #88419D;" d="M337.77339114356994,188.96739673967417L345.5882162484497,197.71827182718295L342.9713252729624,208.81938193819403L336.9847390687655,210.9695969596962L330.5321311840023,205.51905190519074L334.9414132385905,200.51855185518573L334.4753915580243,190.96759675967618Z"></path><path id="masbate" class="feature data" style="fill: #88419D;" d="M301.88972173997035,246.82318231823203L308.3423296247335,249.1734173417344L326.3379360589063,262.6747674767479L332.3245222631032,274.32593259325955L330.3170442545103,277.2262226222624L319.56269777990497,269.8254825482551L312.07050306926334,260.9745974597462L302.9293085658488,268.12531253125337L299.7388524450493,264.12491249124935L302.35574342053656,253.2738273827385Z"></path><path id="sorsogon" class="feature data" style="fill: #88419D;" d="M309.70454684485014,231.72167216721695L326.3379360589063,229.32143214321454L327.4850663495308,226.42114211421165L333.36410908898176,230.42154215421564L335.62252184864883,236.0721072107213L332.7905439436695,248.6733673367339L329.16991396388573,248.12331233123334L321.92865400431816,235.9720972097212Z"></path><path id="aklan" class="feature data" style="fill: #88419D;" d="M274.609529516055,286.77717771777196L261.0232051364704,295.3780378037806L258.4421619825651,289.2774277427745L259.12327059262344,277.77627762776297L253.45931478266468,275.52605260526076L247.43688075688573,277.77627762776297L252.3121844920401,272.22572257225744L267.72674777230765,279.4764476447647Z"></path><path id="antique" class="feature data" style="fill: #88419D;" d="M261.0232051364704,295.3780378037806L262.6363571076612,302.22872287228745L265.2174002615664,309.52945294529474L254.46305378696115,320.63056305630585L254.57059725170723,327.53125312531273L250.51979341293924,316.38013801380157L255.3592493265116,305.829082908291L255.1441623970195,291.2776277627765L257.18748822719454,279.8764876487651L247.43688075688573,277.77627762776297L253.45931478266468,275.52605260526076L259.12327059262344,277.77627762776297L258.4421619825651,289.2774277427745Z"></path><path id="capiz" class="feature data" style="fill: #88419D;" d="M294.4333748509107,288.2273227322734L289.5580711157563,295.4780478047807L282.8903763015011,298.6783678367839L265.68342194213267,298.5283528352837L262.6363571076612,302.22872287228745L261.0232051364704,295.3780378037806L274.609529516055,286.77717771777196L284.790310845348,284.3769376937696L286.7260932107769,290.9775977597762Z"></path><path id="iloilo" class="feature data" style="fill: #88419D;" d="M254.57059725170723,327.53125312531273L254.46305378696115,320.63056305630585L265.2174002615664,309.52945294529474L262.6363571076612,302.22872287228745L265.68342194213267,298.5283528352837L282.8903763015011,298.6783678367839L289.5580711157563,295.4780478047807L294.4333748509107,288.2273227322734L294.75600524514886,301.72867286728695L282.99791976624715,307.779277927793L281.16968086556426,315.48004800480066L275.50572505560547,319.03040304030424L261.1307486012164,321.2806280628065Z"></path><path id="negros_occidental" class="feature data" style="fill: #88419D;" d="M304.3990692507116,330.6815681568159L299.16528729973703,335.4320432043206L290.920288335873,349.0834083408343L276.07929020091774,367.1852185218524L267.5833564859796,356.4841484148417L270.3077909262129,346.5831583158318L279.95085493177567,345.6330633063308L286.51100628128484,341.6826682668269L284.4676804511098,324.7309730973099L288.3033973603857,322.0807080708073L291.2429187301111,310.5795579557958L298.95020037024494,307.1292129212923L309.23852516428394,310.42954295429564L313.2176333598879,314.92999299930017L309.34606862903,325.5310531053107Z"></path><path id="bohol" class="feature data" style="fill: #88419D;" d="M341.17893419386155,339.43244324432465L351.14462859366245,344.9829982998302L352.6143892785251,352.93379337933817L345.01465110313745,358.73437343734395L333.0056308731615,361.53465346534676L324.8681753740436,359.6844684468449L322.14374093381025,352.13371337133736L330.5321311840023,346.9831983198322L335.15650016808263,339.83248324832505Z"></path><path id="cebu" class="feature data" style="fill: #88419D;" d="M327.9152402085151,303.82888288828906L331.21323979406066,304.8789878987901L329.743479109198,332.03170317031726L320.92491500002166,337.03220322032223L315.36850265480894,343.78287828782896L309.48945991535805,362.1847184718474L302.7859172795208,365.0850085008503L305.8688299355743,345.783078307831L311.281850994459,339.53245324532475L318.7740457051006,326.1811181118114Z"></path><path id="negros_oriental" class="feature data" style="fill: #88419D;" d="M276.07929020091774,367.1852185218524L290.920288335873,349.0834083408343L299.16528729973703,335.4320432043206L304.3990692507116,330.6815681568159L302.35574342053656,341.03260326032625L297.2653527558901,349.63346334633485L295.5446573199532,359.93449344934515L303.25193896008705,370.93559355935616L302.4632868852826,375.93609360936114L296.58424414583175,382.1367136713673L287.40720182083527,378.73637363736395L286.7260932107769,371.6856685668569Z"></path><path id="eastern_samar" class="feature data" style="fill: #88419D;" d="M380.6832335772449,258.3243324332435L387.9244935368124,261.62466246624683L383.7302984117164,273.02580258025824L384.4114070217747,283.72687268726895L389.2508629353471,292.32773277327755L389.0357760058549,301.5786578657868L377.4927774564453,302.62876287628785L375.8079298420905,284.22692269226945L378.17388606650366,274.0759075907593L372.2948433270527,269.1754175417544L373.9796909414076,257.77427742774296Z"></path><path id="leyte" class="feature data" style="fill: #88419D;" d="M373.40612579609535,321.83068306830705L365.26867029697735,325.5310531053107L363.90645307686066,335.832083208321L358.49343201797603,338.4823482348237L357.13121479785934,330.5815581558158L360.07073616758476,320.780578057806L359.28208409278045,315.88008800880107L351.2521720584085,307.0292029202922L343.5448904182747,305.1790179017904L344.9071076383914,298.1283128312833L340.4978255838032,287.0272027202722L351.93328066846686,295.4780478047807L363.0102575373103,290.5775577557758L369.24777849258123,305.02900290029027L368.67421334726896,317.8802880288031Z"></path><path id="northern_samar" class="feature data" style="fill: #88419D;" d="M380.6832335772449,258.3243324332435L373.9796909414076,257.77427742774296L362.0065185330137,260.3245324532455L348.6352810829212,255.92409240924113L343.4373469535286,257.9242924292431L341.0713907291155,247.07320732073228L353.72567174756773,249.1734173417344L373.2985823313493,246.52315231523173L379.07008160605403,250.773577357736Z"></path><path id="samar_(western_samar)" class="feature data" style="fill: #88419D;" d="M373.9796909414076,257.77427742774296L372.2948433270527,269.1754175417544L378.17388606650366,274.0759075907593L375.8079298420905,284.22692269226945L377.4927774564453,302.62876287628785L372.97595193711106,296.57815781578176L367.41953959189834,296.27812781278146L363.4762792178765,278.27632763276347L355.76899757774265,268.5253525352538L349.9974983030379,266.3751375137516L343.4373469535286,257.9242924292431L348.6352810829212,255.92409240924113L362.0065185330137,260.3245324532455Z"></path><path id="southern_leyte" class="feature data" style="fill: #88419D;" d="M358.49343201797603,338.4823482348237L363.90645307686066,335.832083208321L365.26867029697735,325.5310531053107L373.40612579609535,321.83068306830705L377.6003209211914,331.4816481648167L363.4762792178765,341.13261326132636Z"></path><path id="bukidnon" class="feature data" style="fill: #88419D;" d="M378.63990774706986,399.4884488448847L379.85873368085845,409.03940394039427L383.4793636606422,418.790379037904L381.4718856520493,421.84068406840703L383.2642767311502,434.2919291929195L377.70786438593746,437.1922192219224L366.84597444658607,444.5929592959298L362.1140619977598,443.14281428142834L360.2858230970769,437.0922092209223L353.15210660225546,427.54125412541276L352.0408241332128,419.1904190419044L348.52773761817514,416.44014401440165L351.00123730733435,412.9897989798982L353.5105848180756,405.83908390839105L360.8593882423892,405.6890689068909L363.0102575373103,399.4884488448847Z"></path><path id="lanao_del_norte" class="feature data" style="fill: #88419D;" d="M351.00123730733435,412.9897989798982L348.52773761817514,416.44014401440165L335.7300653133949,421.1906190619064L329.16991396388573,433.64186418641884L322.39467568488436,433.4918491849187L314.00628543469224,428.0913091309133L316.8382633396717,423.6908690869089L326.6964142747265,415.8900890089011L338.3469562888822,413.23982398239843L338.9205214341945,409.43944394439467L347.3806073275506,409.2894289428945Z"></path><path id="misamis_occidental" class="feature data" style="fill: #88419D;" d="M316.26469819435937,421.1906190619064L312.5365247498296,414.03990399039924L312.5365247498296,398.2883288328835L320.3513498547094,399.0884088408843L323.721045083419,405.6890689068909L324.97571883878965,415.24002400240045Z"></path><path id="misamis_oriental" class="feature data" style="fill: #88419D;" d="M378.5323642823238,396.43814381438165L378.63990774706986,399.4884488448847L363.0102575373103,399.4884488448847L360.8593882423892,405.6890689068909L353.5105848180756,405.83908390839105L351.00123730733435,412.9897989798982L347.3806073275506,409.2894289428945L338.9205214341945,409.43944394439467L341.6091080528457,401.08860886088627L346.4844117880001,398.1883188318834L357.13121479785934,403.43884388438863L359.7122579517646,390.3875387538756L362.9027140725642,383.6368636863688L370.93262610693614,390.3875387538756L374.91173430254,387.43724372437265L375.4494516262703,380.03650365036526Z"></path><path id="compostela_valley" class="feature data" style="fill: #88419D;" d="M392.90734073671285,421.84068406840703L413.2689033952988,421.84068406840703L417.678185449887,436.2921292129215L418.1442071304532,449.2434243424344L404.09186107030234,457.2942294229425L399.68257901571417,446.34313431343156L403.98431760555627,434.94199419942015L398.5354487250896,434.94199419942015L393.9110797410093,430.0415041504152Z"></path><path id="davao_del_norte" class="feature data" style="fill: #88419D;" d="M392.90734073671285,421.84068406840703L393.9110797410093,430.0415041504152L398.5354487250896,434.94199419942015L403.98431760555627,434.94199419942015L399.68257901571417,446.34313431343156L395.05821003163385,448.9933993399342L389.143319470601,450.6935693569359L389.0357760058549,437.1922192219224L377.70786438593746,437.1922192219224L383.2642767311502,434.2919291929195L381.4718856520493,421.84068406840703Z"></path><path id="davao_del_sur" class="feature data" style="fill: #88419D;" d="M395.05821003163385,448.9933993399342L392.76394945038476,456.14411441144136L388.13958046630455,459.1444144414443L383.1567332664041,467.2452245224525L382.47562465634576,474.79597959796L389.50179768642124,477.9462946294631L395.1657534963799,491.9976997699772L393.122427666205,501.4986498649867L383.6227549469703,515.0000000000002L380.5398422909168,515.0000000000002L386.45473285194964,504.54895489548977L388.92823254110886,495.5480548054808L387.9244935368124,489.04740474047424L377.85125567226544,485.24702470247047L374.2306256924817,480.5965596559658L374.76834301621193,477.4462446244626L373.08349540185714,469.34543454345453L378.2814295312497,461.14461446144634L376.7041253816409,452.6937693769379L377.70786438593746,437.1922192219224L389.0357760058549,437.1922192219224L389.143319470601,450.6935693569359Z"></path><path id="davao_oriental" class="feature data" style="fill: #88419D;" d="M419.3630330642418,421.84068406840703L420.04414167430014,425.44104410441065L427.3929450986137,432.2917291729175L429.2211839992966,441.2926292629265L426.2816626295712,454.79397939794L419.0404026700036,460.0945094509453L414.73866408016147,473.9958995899592L409.3973386644409,477.796279627963L408.85962134071065,465.3950395039506L404.09186107030234,457.2942294229425L418.1442071304532,449.2434243424344L417.678185449887,436.2921292129215L413.2689033952988,421.84068406840703Z"></path><path id="north_cotabato" class="feature data" style="fill: #88419D;" d="M360.2858230970769,437.0922092209223L362.1140619977598,443.14281428142834L366.84597444658607,444.5929592959298L377.70786438593746,437.1922192219224L376.7041253816409,452.6937693769379L378.2814295312497,461.14461446144634L373.08349540185714,469.34543454345453L368.9968437415072,470.795579557956L361.5404968524475,468.2953295329535L360.1782796323308,455.9940994099412L354.08414996338786,462.1947194719474L346.26932485850807,456.794179417942L344.9071076383914,448.59335933593377L348.312650688683,443.14281428142834L347.48815079229666,435.34203420342055Z"></path><path id="sarangani" class="feature data" style="fill: #88419D;" d="M371.72127818174044,500.44854485448565L366.1648658365277,504.14891489148937L342.54115141397824,493.94789478947916L345.48067278370365,490.797579757976L360.07073616758476,497.94829482948313ZM380.5398422909168,515.0000000000002L374.91173430254,506.94919491949213L378.9625381413081,498.9983998399842L377.27769052695317,494.74797479747997L378.854994676562,487.7472747274729L370.6099957126979,484.84698469847007L374.2306256924817,480.5965596559658L377.85125567226544,485.24702470247047L387.9244935368124,489.04740474047424L388.92823254110886,495.5480548054808L386.45473285194964,504.54895489548977Z"></path><path id="south_cotabato" class="feature data" style="fill: #88419D;" d="M374.76834301621193,477.4462446244626L374.2306256924817,480.5965596559658L370.6099957126979,484.84698469847007L378.854994676562,487.7472747274729L377.27769052695317,494.74797479747997L371.72127818174044,500.44854485448565L360.07073616758476,497.94829482948313L345.48067278370365,490.797579757976L352.82947620801724,485.34703470347057L352.72193274327117,478.1963196319634L358.6009754827221,472.64576457645785L361.75558378193966,477.6962696269629Z"></path><path id="sultan_kudarat" class="feature data" style="fill: #88419D;" d="M368.9968437415072,470.795579557956L373.08349540185714,469.34543454345453L374.76834301621193,477.4462446244626L361.75558378193966,477.6962696269629L358.6009754827221,472.64576457645785L352.72193274327117,478.1963196319634L352.82947620801724,485.34703470347057L345.48067278370365,490.797579757976L342.54115141397824,493.94789478947916L336.5187173881993,490.3975397539756L330.9981528645686,482.04670467046725L330.9981528645686,469.34543454345453L349.1013027634874,470.795579557956L354.8728020381923,464.5949594959498L362.54423585674397,473.5958595859588Z"></path><path id="agusan_del_norte" class="feature data" style="fill: #88419D;" d="M397.4241662560471,371.03560356035626L397.31662279130103,373.9358935893591L396.6355141812427,380.43654365436566L392.3337755914006,391.03760376037627L393.33751459569703,394.83798379838004L378.5323642823238,396.43814381438165L375.4494516262703,380.03650365036526L378.7474512118159,384.03690369036923L388.0320370015585,381.4866486648667L385.20005909657914,366.83518351835204L386.45473285194964,366.6851685168519L389.0357760058549,365.8850885088511Z"></path><path id="agusan_del_sur" class="feature data" style="fill: #88419D;" d="M419.3630330642418,421.84068406840703L413.2689033952988,421.84068406840703L392.90734073671285,421.84068406840703L381.4718856520493,421.84068406840703L383.4793636606422,418.790379037904L379.85873368085845,409.03940394039427L378.63990774706986,399.4884488448847L378.5323642823238,396.43814381438165L393.33751459569703,394.83798379838004L392.3337755914006,391.03760376037627L396.6355141812427,380.43654365436566L397.31662279130103,373.9358935893591L401.7259048458892,382.5367536753677L401.94099177538124,388.63736373637386L406.0276434357313,395.93809380938114L406.4578172947155,404.53895389538974Z"></path><path id="dinagat_islands" class="feature data" style="fill: #88419D;" d="M392.90734073671285,328.83138313831404L394.12616667050145,342.4827482748277L385.98871117138344,340.73257325732595Z"></path><path id="surigao_del_norte" class="feature data" style="fill: #88419D;" d="M402.72964385018565,364.83498349835L397.4241662560471,371.03560356035626L389.0357760058549,365.8850885088511L386.45473285194964,366.6851685168519L385.20005909657914,366.83518351835204L382.6907115858379,358.63436343634385L385.41514602607117,352.93379337933817L392.3337755914006,360.4845484548457ZM408.85962134071065,344.0329032903292L412.22931656942035,353.58385838583877L406.8162955105356,355.0340034003402L403.51829592499007,348.83338333833404Z"></path><path id="surigao_del_sur" class="feature data" style="fill: #88419D;" d="M420.04414167430014,425.44104410441065L419.3630330642418,421.84068406840703L406.4578172947155,404.53895389538974L406.0276434357313,395.93809380938114L401.94099177538124,388.63736373637386L401.7259048458892,382.5367536753677L397.31662279130103,373.9358935893591L397.4241662560471,371.03560356035626L402.72964385018565,364.83498349835L407.7124910500861,374.4859485948597L417.678185449887,385.1870187018704L418.5743809894374,389.2874287428745L409.540729950769,397.0882088208823L410.6520124198115,400.9385938593861L419.829054744808,401.08860886088627L418.1442071304532,408.0893089308933L422.66103264978744,412.73977397739793Z"></path></g></g><g><g><path id="basilan" class="feature data" style="fill: #EF6548;" d="M250.053771732373,473.34583458345855L254.82153200278134,470.3955395539556L261.59677028178265,476.746174617462L260.8081182069783,481.3966396639666L251.73861934672783,483.3968396839686L248.36892411801819,479.796479647965Z"></path><path id="lanao_del_sur" class="feature data" style="fill: #EF6548;" d="M360.2858230970769,437.0922092209223L347.48815079229666,435.34203420342055L337.19982599825767,444.34293429342955L330.42458771925635,435.8920892089211L322.39467568488436,433.4918491849187L329.16991396388573,433.64186418641884L335.7300653133949,421.1906190619064L348.52773761817514,416.44014401440165L352.0408241332128,419.1904190419044L353.15210660225546,427.54125412541276Z"></path><path id="maguindanao" class="feature data" style="fill: #EF6548;" d="M368.9968437415072,470.795579557956L362.54423585674397,473.5958595859588L354.8728020381923,464.5949594959498L349.1013027634874,470.795579557956L330.9981528645686,469.34543454345453L328.16617495958917,461.2946294629465L335.51497838390276,453.0938093809383L337.5583042140778,450.2935293529355L337.19982599825767,444.34293429342955L347.48815079229666,435.34203420342055L348.312650688683,443.14281428142834L344.9071076383914,448.59335933593377L346.26932485850807,456.794179417942L354.08414996338786,462.1947194719474L360.1782796323308,455.9940994099412L361.5404968524475,468.2953295329535Z"></path><path id="sulu" class="feature data" style="fill: #EF6548;" d="M217.57564537906512,494.9979997999802L222.45094911421953,500.2985298529855L212.70034164391075,502.54875487548776L211.69660263961424,497.3982398239826Z"></path><path id="abra" class="feature data" style="fill: #EF6548;" d="M219.36803645816602,51.50365036503673L211.69660263961424,68.70537053705394L209.7608202741853,70.85558555855607L197.32162618522523,64.20492049204944L194.48964828024583,58.80438043804403L197.21408272047915,51.00360036003623L198.43290865426775,47.70327032703293L212.12677649859847,40.802580258026026Z"></path><path id="apayao" class="feature data" style="fill: #EF6548;" d="M232.0581652982002,51.00360036003623L219.36803645816602,51.50365036503673L212.12677649859847,40.802580258026026L213.3814502539691,22.30073007300753L218.04166705963135,21.10061006100633L232.73927390825855,27.701270127012926L232.4166435140204,37.25222522252248L227.43379631411995,45.05300530053028Z"></path><path id="benguet" class="feature data" style="fill: #EF6548;" d="M211.12303749430197,92.90779077907813L210.65701581373574,99.25842584258449L205.35153821959716,108.40934093409363L196.74806103991295,106.95919591959218L194.48964828024583,97.00820082008224L199.1140172643261,91.05760576057628L201.1573430945011,82.35673567356758L206.60621197496778,80.75657565756597L210.22684195475154,84.20692069206943Z"></path><path id="ifugao" class="feature data" style="fill: #EF6548;" d="M227.43379631411995,86.55715571557178L225.82064434292917,90.15751575157537L211.12303749430197,92.90779077907813L210.22684195475154,84.20692069206943L213.95501539928136,77.70627062706293L236.3599038880423,74.95599559956018L237.25609942759274,80.90659065906613Z"></path><path id="kalinga" class="feature data" style="fill: #EF6548;" d="M240.33901208364625,57.85428542854308L235.78633874273004,68.30533053305354L227.64888324361206,68.05530553055328L220.73025367828268,71.60566056605683L211.69660263961424,68.70537053705394L219.36803645816602,51.50365036503673L232.0581652982002,51.00360036003623Z"></path><path id="mountain_province" class="feature data" style="fill: #EF6548;" d="M236.3599038880423,74.95599559956018L213.95501539928136,77.70627062706293L210.22684195475154,84.20692069206943L206.60621197496778,80.75657565756597L209.7608202741853,70.85558555855607L211.69660263961424,68.70537053705394L220.73025367828268,71.60566056605683L227.64888324361206,68.05530553055328L235.78633874273004,68.30533053305354Z"></path><path id="ilocos_norte" class="feature data" style="fill: #EF6548;" d="M213.95501539928136,17.400240024002628L213.3814502539691,22.30073007300753L212.12677649859847,40.802580258026026L198.43290865426775,47.70327032703293L197.21408272047915,51.00360036003623L193.70099620544147,43.202820282028426L194.70473520973795,36.15211521152138L199.6875824096384,26.501150115011725L198.21782172477566,21.10061006100633L209.07971166412696,15.000000000000227Z"></path><path id="ilocos_sur" class="feature data" style="fill: #EF6548;" d="M197.21408272047915,51.00360036003623L194.48964828024583,58.80438043804403L197.32162618522523,64.20492049204944L209.7608202741853,70.85558555855607L206.60621197496778,80.75657565756597L201.1573430945011,82.35673567356758L199.1140172643261,91.05760576057628L196.4254306456748,80.90659065906613L192.44632245007085,80.90659065906613L192.23123552057874,69.75547554755498L194.13117006442565,62.104710471047326L189.82943147458354,55.75407540754098L193.70099620544147,43.202820282028426Z"></path><path id="la_union" class="feature data" style="fill: #EF6548;" d="M199.1140172643261,91.05760576057628L194.48964828024583,97.00820082008224L196.74806103991295,106.95919591959218L192.80480066589104,108.25932593259348L189.97282276091164,104.70897089708993L188.35967078972084,91.20762076207643L192.44632245007085,80.90659065906613L196.4254306456748,80.90659065906613Z"></path><path id="pangasinan" class="feature data" style="fill: #EF6548;" d="M192.80480066589104,108.25932593259348L196.74806103991295,106.95919591959218L205.35153821959716,108.40934093409363L209.7608202741853,112.10971097109733L209.07971166412696,122.46074607460768L200.04606062545855,122.46074607460768L191.55012691052042,125.06100610061029L186.56727971061997,130.6615661566159L181.90706290495768,122.71077107710794L172.65832493679716,123.61086108610883L166.88682566209235,117.41024102410263L167.4245429858226,108.55935593559379L173.98469433533182,106.70917091709192L186.4597362458739,114.75997599759998Z"></path><path id="cagayan" class="feature data" style="fill: #EF6548;" d="M260.4854878127401,56.55415541554178L240.33901208364625,57.85428542854308L232.0581652982002,51.00360036003623L227.43379631411995,45.05300530053028L232.4166435140204,37.25222522252248L232.73927390825855,27.701270127012926L218.04166705963135,21.10061006100633L213.3814502539691,22.30073007300753L213.95501539928136,17.400240024002628L218.57938438336163,15.650065006500878L239.08433832827563,25.701070107010928L253.35177131791863,28.50135013501373L261.48922681703664,19.650465046504877L265.79096540687874,29.151415141514377L259.66098791635375,37.10221022102233L258.4421619825651,47.15321532153238Z"></path><path id="isabela" class="feature data" style="fill: #EF6548;" d="M263.96272650619585,95.05800580058028L257.7610533725068,95.05800580058028L243.60116384760985,100.75857585758598L235.78633874273004,91.45764576457668L230.0148394680252,91.20762076207643L227.43379631411995,86.55715571557178L237.25609942759274,80.90659065906613L236.3599038880423,74.95599559956018L235.78633874273004,68.30533053305354L240.33901208364625,57.85428542854308L260.4854878127401,56.55415541554178L262.85144403715327,63.70487048704893L268.73048677660415,66.60516051605182L273.03222536644626,73.60586058605884Z"></path><path id="nueva_vizcaya" class="feature data" style="fill: #EF6548;" d="M230.0148394680252,91.20762076207643L225.96403562925724,105.35903590359058L227.07531809829976,114.60996099609983L232.63173044351248,119.66046604660488L226.07157909400328,125.61106110611084L222.09247089839934,113.55985598559879L215.31723261939803,110.90959095909614L209.7608202741853,112.10971097109733L205.35153821959716,108.40934093409363L210.65701581373574,99.25842584258449L211.12303749430197,92.90779077907813L225.82064434292917,90.15751575157537L227.43379631411995,86.55715571557178Z"></path><path id="quirino" class="feature data" style="fill: #EF6548;" d="M230.0148394680252,91.20762076207643L235.78633874273004,91.45764576457668L243.60116384760985,100.75857585758598L257.7610533725068,95.05800580058028L246.7916199684094,107.10921092109233L232.63173044351248,119.66046604660488L227.07531809829976,114.60996099609983L225.96403562925724,105.35903590359058Z"></path><path id="aurora" class="feature data" style="fill: #EF6548;" d="M263.96272650619585,95.05800580058028L261.1307486012164,107.10921092109233L243.13514216704363,113.55985598559879L236.25236042329627,120.31053105310554L239.29942525776775,126.81118111811203L229.2261873932208,140.9625962596262L231.26951322339582,146.36313631363157L227.86397017310415,154.4639463946397L226.5017529529875,147.16321632163238L229.2261873932208,136.46214621462167L226.07157909400328,125.61106110611084L232.63173044351248,119.66046604660488L246.7916199684094,107.10921092109233L257.7610533725068,95.05800580058028Z"></path><path id="bataan" class="feature data" style="fill: #EF6548;" d="M198.43290865426775,159.764476447645L200.15360409020462,173.2658265826585L186.4597362458739,166.36513651365158L188.03704039548268,162.01470147014723L194.02362659967963,156.16411641164137Z"></path><path id="bulacan" class="feature data" style="fill: #EF6548;" d="M226.5017529529875,147.16321632163238L227.86397017310415,154.4639463946397L227.86397017310415,158.41434143414364L219.83405813873225,162.91479147914814L218.83031913443574,163.1648164816484L211.44566788854013,165.71507150715092L202.41201684987172,163.1648164816484L213.3814502539691,152.06370637063728L212.95127639498486,145.71307130713095L220.51516674879056,143.86288628862908Z"></path><path id="nueva_ecija" class="feature data" style="fill: #EF6548;" d="M226.07157909400328,125.61106110611084L229.2261873932208,136.46214621462167L226.5017529529875,147.16321632163238L220.51516674879056,143.86288628862908L212.95127639498486,145.71307130713095L206.03264682965548,143.76287628762898L205.92510336490943,138.06230623062328L200.04606062545855,122.46074607460768L209.07971166412696,122.46074607460768L209.7608202741853,112.10971097109733L215.31723261939803,110.90959095909614L222.09247089839934,113.55985598559879Z"></path><path id="pampanga" class="feature data" style="fill: #EF6548;" d="M206.03264682965548,143.76287628762898L212.95127639498486,145.71307130713095L213.3814502539691,152.06370637063728L202.41201684987172,163.1648164816484L198.43290865426775,159.764476447645L194.02362659967963,156.16411641164137L191.08410522995416,147.71327132713293L197.07069143415112,144.6629662966299Z"></path><path id="tarlac" class="feature data" style="fill: #EF6548;" d="M206.03264682965548,143.76287628762898L197.07069143415112,144.6629662966299L191.08410522995416,147.71327132713293L182.83910626609014,140.31253125312554L186.56727971061997,130.6615661566159L191.55012691052042,125.06100610061029L200.04606062545855,122.46074607460768L205.92510336490943,138.06230623062328Z"></path><path id="zambales" class="feature data" style="fill: #EF6548;" d="M186.56727971061997,130.6615661566159L182.83910626609014,140.31253125312554L191.08410522995416,147.71327132713293L194.02362659967963,156.16411641164137L188.03704039548268,162.01470147014723L183.5202148761485,163.9648964896492L178.8599980704862,159.0644064406443L177.28269392087742,144.2629262926295L172.76586840154323,138.06230623062328L175.23936809070244,135.01200120012024L172.65832493679716,123.61086108610883L181.90706290495768,122.71077107710794Z"></path><path id="batangas" class="feature data" style="fill: #EF6548;" d="M200.26114755495067,184.21692169216942L212.8078851086568,189.36743674367457L216.57190637476864,187.01720172017224L222.09247089839934,187.41724172417264L224.81690533863267,194.01790179017922L232.27325222769232,199.71847184718493L225.96403562925724,208.01930193019322L217.79073230855724,207.11921192119235L215.99834122945634,201.2686268626865L210.44192888424365,196.2681268126815L200.26114755495067,194.01790179017922Z"></path><path id="cavite" class="feature data" style="fill: #EF6548;" d="M213.8474719345353,174.41594159415965L215.20968915465198,179.21642164216445L216.57190637476864,187.01720172017224L212.8078851086568,189.36743674367457L200.26114755495067,184.21692169216942Z"></path><path id="laguna" class="feature data" style="fill: #EF6548;" d="M224.81690533863267,194.01790179017922L222.09247089839934,187.41724172417264L216.57190637476864,187.01720172017224L215.20968915465198,179.21642164216445L217.1096236984989,178.01630163016324L226.07157909400328,185.26702670267048L229.7997525385331,179.46644664466467L232.52418697876644,170.71557155715593L238.9767948635296,182.3667366736676L233.0619043024967,190.31753175317553Z"></path><path id="quezon" class="feature data" style="fill: #EF6548;" d="M231.26951322339582,146.36313631363157L237.82966457290505,160.81458145814602L239.1918817930217,175.11601160116032L243.2785334533717,187.11721172117234L250.16131519711905,192.6677667766779L262.4929658213331,196.01810181018124L265.1098567968204,188.71737173717395L270.09270399672084,187.01720172017224L283.5714849115594,192.1677167716774L274.0359643707427,194.66796679667988L272.02848636214975,206.5691569156918L278.69618117640505,215.0700070007003L279.80746364544757,222.47074707470767L275.97174673617167,224.9709970997102L268.515399847112,211.0696069606963L261.95524849760284,208.16931693169337L257.8685968372528,202.0687068706873L243.4936203828638,194.01790179017922L232.27325222769232,199.71847184718493L224.81690533863267,194.01790179017922L233.0619043024967,190.31753175317553L238.9767948635296,182.3667366736676L232.52418697876644,170.71557155715593L227.86397017310415,158.41434143414364L227.86397017310415,154.4639463946397Z"></path><path id="rizal" class="feature data" style="fill: #EF6548;" d="M219.1529495286739,172.4657465746577L218.7227756696897,171.76567656765698L219.83405813873225,162.91479147914814L227.86397017310415,158.41434143414364L232.52418697876644,170.71557155715593L229.7997525385331,179.46644664466467L227.18286156304583,174.81598159816002Z"></path><path id="marinduque" class="feature data" style="fill: #EF6548;" d="M248.36892411801819,209.51945194519473L253.56685824741072,210.01950195019523L258.54970544731117,216.770177017702L254.24796685746907,223.52085208520873L247.7953589727059,219.9704970497052Z"></path><path id="occidental_mindoro" class="feature data" style="fill: #EF6548;" d="M210.5494723489897,211.769676967697L206.60621197496778,220.3705370537056L224.02825326382828,229.07140714071429L224.4942749443945,261.0746074607463L219.61897120924013,259.9244924492451L207.2873205850261,241.27262726272647L205.8175599001634,230.6715671567159L197.4291696499713,222.0707070707073L194.13117006442565,214.76997699769998Z"></path><path id="oriental_mindoro" class="feature data" style="fill: #EF6548;" d="M224.4942749443945,261.0746074607463L224.02825326382828,229.07140714071429L206.60621197496778,220.3705370537056L210.5494723489897,211.769676967697L226.5017529529875,217.57025702570277L234.42412152261338,228.42134213421363L233.20529558882478,239.6724672467249L236.25236042329627,246.02310231023122Z"></path><path id="palawan" class="feature data" style="fill: #EF6548;" d="M147.3856107214748,309.779477947795L154.41178375155025,305.52905290529077L154.6627185026244,294.1779177917794L159.39463095145067,295.0780078007803L156.67019651121734,303.5788578857888L157.02867472703753,312.1797179717974L165.7396953714678,325.78107810781097L160.075739561509,331.23162316231645L152.2609144566292,332.43174317431766L145.48567617762788,344.0329032903292L128.9598304283178,348.53335333533374L129.64093903837613,356.3841384138416L119.10167949326299,372.78577857785797L106.877572333795,378.03630363036325L100.3174209842858,388.787378737874L90.7102048003051,396.1881188118814L83.57648830548362,396.9881988198822L80.95959732999634,403.73887388738893L70.77881600070336,402.2887288728875L75.40318498478362,394.5879587958798L87.6272921442516,381.3866386638666L97.16281268506826,374.0859085908593L100.3174209842858,375.03600360036023L116.84326673359588,356.63416341634183L119.67524463857526,355.0340034003402L131.11069972323884,338.63236323632384L135.84261217206517,337.9822982298232L138.1368727533143,330.6815681568159L145.48567617762788,328.9813981398142L150.4685233775283,323.2808280828085ZM172.98095533103532,256.7241724172419L183.05419319558226,264.52495249524975L177.3902373856235,269.4254425442547L170.93762950086034,259.9244924492451Z"></path><path id="romblon" class="feature data" style="fill: #EF6548;" d="M257.65350990776074,243.3728372837286L256.9724012977024,255.12401240124035L251.20090202299758,258.07430743074326L253.35177131791863,246.02310231023122Z"></path><path id="zamboanga_del_norte" class="feature data" style="fill: #EF6548;" d="M312.5365247498296,398.2883288328835L312.5365247498296,414.03990399039924L299.16528729973703,413.13981398139833L298.05400483069445,422.3907390739076L288.3033973603857,425.14101410141035L278.4810942469129,424.8909890989101L266.9380956975033,431.8916891689171L261.48922681703664,442.8927892789281L256.29129268764405,454.79397939794L249.26511965756862,455.1940194019404L253.45931478266468,450.14351435143533L258.3346185178191,435.74207420742096L257.65350990776074,430.7415741574159L266.47207401693703,420.39053905390557L288.19585389563963,416.6901690169019L288.98450597044405,410.3395339533956L293.8598097055984,402.3887388738876L303.0368520305949,402.1387138713873L307.76876447942124,394.73797379737994Z"></path><path id="zamboanga_del_sur" class="feature data" style="fill: #EF6548;" d="M266.47207401693703,443.04280428042824L263.17407443139143,455.74407440744096L257.18748822719454,464.9949994999502L250.053771732373,460.9945994599462L249.26511965756862,455.1940194019404L256.29129268764405,454.79397939794L261.48922681703664,442.8927892789281ZM312.5365247498296,414.03990399039924L316.26469819435937,421.1906190619064L316.8382633396717,423.6908690869089L314.00628543469224,428.0913091309133L309.13098169953787,429.3914391439146L309.34606862903,435.9920992099212L302.4632868852826,442.8927892789281L295.4371138552072,433.4918491849187L295.00693999622297,429.3914391439146L288.3033973603857,425.14101410141035L298.05400483069445,422.3907390739076L299.16528729973703,413.13981398139833Z"></path><path id="zamboanga_sibugay" class="feature data" style="fill: #EF6548;" d="M288.3033973603857,425.14101410141035L295.00693999622297,429.3914391439146L295.4371138552072,433.4918491849187L290.81274487112694,442.4927492749277L283.4280936252313,437.74227422742297L280.84705047132604,430.7415741574159L272.8171384369541,433.8918891889191L271.8850950758217,439.19241924192437L266.47207401693703,443.04280428042824L261.48922681703664,442.8927892789281L266.9380956975033,431.8916891689171L278.4810942469129,424.8909890989101Z"></path><path id="ncr_1_dist" class="feature data" style="fill: #EF6548;" d="M214.63612400933968,168.21532153215344L215.53231954889014,170.31553155315552L214.4210370798476,171.11561156115633L213.27390678922302,168.3653365336536Z"></path><path id="ncr_2_dist" class="feature data" style="fill: #EF6548;" d="M219.83405813873225,162.91479147914814L218.7227756696897,171.76567656765698L215.53231954889014,170.31553155315552L214.63612400933968,168.21532153215344L218.83031913443574,163.1648164816484Z"></path><path id="ncr_3_dist" class="feature data" style="fill: #EF6548;" d="M218.83031913443574,163.1648164816484L214.63612400933968,168.21532153215344L213.27390678922302,168.3653365336536L211.44566788854013,165.71507150715092Z"></path><path id="ncr_4_dist" class="feature data" style="fill: #EF6548;" d="M218.7227756696897,171.76567656765698L219.1529495286739,172.4657465746577L217.1096236984989,178.01630163016324L215.20968915465198,179.21642164216445L213.8474719345353,174.41594159415965L214.4210370798476,171.11561156115633L215.53231954889014,170.31553155315552Z"></path><path id="albay" class="feature data" style="fill: #EF6548;" d="M327.4850663495308,226.42114211421165L326.3379360589063,229.32143214321454L309.70454684485014,231.72167216721695L303.0368520305949,229.07140714071429L302.6783738147748,221.2706270627065L313.79119850520016,215.72007200720094L314.4723071152585,210.6695669566959L321.570175788498,221.6706670667069Z"></path><path id="camarines_norte" class="feature data" style="fill: #EF6548;" d="M293.1787010955401,200.11851185118533L283.5714849115594,192.1677167716774L270.09270399672084,187.01720172017224L265.1098567968204,188.71737173717395L272.56620368588005,179.46644664466467L285.5789629201524,181.86668666866709L294.4333748509107,193.21782178217845Z"></path><path id="camarines_sur" class="feature data" style="fill: #EF6548;" d="M314.4723071152585,210.6695669566959L313.79119850520016,215.72007200720094L302.6783738147748,221.2706270627065L297.4804396853822,213.46984698469868L284.4676804511098,206.1691169116914L285.0412455964221,202.61876187618785L274.0359643707427,194.66796679667988L283.5714849115594,192.1677167716774L293.1787010955401,200.11851185118533L299.6313089803033,203.01880188018825L308.4498730894795,194.66796679667988L325.08326230353566,199.96849684968518L322.0361974690642,204.61896189618983L313.79119850520016,203.01880188018825Z"></path><path id="catanduanes" class="feature data" style="fill: #EF6548;" d="M337.77339114356994,188.96739673967417L345.5882162484497,197.71827182718295L342.9713252729624,208.81938193819403L336.9847390687655,210.9695969596962L330.5321311840023,205.51905190519074L334.9414132385905,200.51855185518573L334.4753915580243,190.96759675967618Z"></path><path id="masbate" class="feature data" style="fill: #EF6548;" d="M301.88972173997035,246.82318231823203L308.3423296247335,249.1734173417344L326.3379360589063,262.6747674767479L332.3245222631032,274.32593259325955L330.3170442545103,277.2262226222624L319.56269777990497,269.8254825482551L312.07050306926334,260.9745974597462L302.9293085658488,268.12531253125337L299.7388524450493,264.12491249124935L302.35574342053656,253.2738273827385Z"></path><path id="sorsogon" class="feature data" style="fill: #EF6548;" d="M309.70454684485014,231.72167216721695L326.3379360589063,229.32143214321454L327.4850663495308,226.42114211421165L333.36410908898176,230.42154215421564L335.62252184864883,236.0721072107213L332.7905439436695,248.6733673367339L329.16991396388573,248.12331233123334L321.92865400431816,235.9720972097212Z"></path><path id="aklan" class="feature data" style="fill: #EF6548;" d="M274.609529516055,286.77717771777196L261.0232051364704,295.3780378037806L258.4421619825651,289.2774277427745L259.12327059262344,277.77627762776297L253.45931478266468,275.52605260526076L247.43688075688573,277.77627762776297L252.3121844920401,272.22572257225744L267.72674777230765,279.4764476447647Z"></path><path id="antique" class="feature data" style="fill: #EF6548;" d="M261.0232051364704,295.3780378037806L262.6363571076612,302.22872287228745L265.2174002615664,309.52945294529474L254.46305378696115,320.63056305630585L254.57059725170723,327.53125312531273L250.51979341293924,316.38013801380157L255.3592493265116,305.829082908291L255.1441623970195,291.2776277627765L257.18748822719454,279.8764876487651L247.43688075688573,277.77627762776297L253.45931478266468,275.52605260526076L259.12327059262344,277.77627762776297L258.4421619825651,289.2774277427745Z"></path><path id="capiz" class="feature data" style="fill: #EF6548;" d="M294.4333748509107,288.2273227322734L289.5580711157563,295.4780478047807L282.8903763015011,298.6783678367839L265.68342194213267,298.5283528352837L262.6363571076612,302.22872287228745L261.0232051364704,295.3780378037806L274.609529516055,286.77717771777196L284.790310845348,284.3769376937696L286.7260932107769,290.9775977597762Z"></path><path id="iloilo" class="feature data" style="fill: #EF6548;" d="M254.57059725170723,327.53125312531273L254.46305378696115,320.63056305630585L265.2174002615664,309.52945294529474L262.6363571076612,302.22872287228745L265.68342194213267,298.5283528352837L282.8903763015011,298.6783678367839L289.5580711157563,295.4780478047807L294.4333748509107,288.2273227322734L294.75600524514886,301.72867286728695L282.99791976624715,307.779277927793L281.16968086556426,315.48004800480066L275.50572505560547,319.03040304030424L261.1307486012164,321.2806280628065Z"></path><path id="negros_occidental" class="feature data" style="fill: #EF6548;" d="M304.3990692507116,330.6815681568159L299.16528729973703,335.4320432043206L290.920288335873,349.0834083408343L276.07929020091774,367.1852185218524L267.5833564859796,356.4841484148417L270.3077909262129,346.5831583158318L279.95085493177567,345.6330633063308L286.51100628128484,341.6826682668269L284.4676804511098,324.7309730973099L288.3033973603857,322.0807080708073L291.2429187301111,310.5795579557958L298.95020037024494,307.1292129212923L309.23852516428394,310.42954295429564L313.2176333598879,314.92999299930017L309.34606862903,325.5310531053107Z"></path><path id="bohol" class="feature data" style="fill: #EF6548;" d="M341.17893419386155,339.43244324432465L351.14462859366245,344.9829982998302L352.6143892785251,352.93379337933817L345.01465110313745,358.73437343734395L333.0056308731615,361.53465346534676L324.8681753740436,359.6844684468449L322.14374093381025,352.13371337133736L330.5321311840023,346.9831983198322L335.15650016808263,339.83248324832505Z"></path><path id="cebu" class="feature data" style="fill: #EF6548;" d="M327.9152402085151,303.82888288828906L331.21323979406066,304.8789878987901L329.743479109198,332.03170317031726L320.92491500002166,337.03220322032223L315.36850265480894,343.78287828782896L309.48945991535805,362.1847184718474L302.7859172795208,365.0850085008503L305.8688299355743,345.783078307831L311.281850994459,339.53245324532475L318.7740457051006,326.1811181118114Z"></path><path id="negros_oriental" class="feature data" style="fill: #EF6548;" d="M276.07929020091774,367.1852185218524L290.920288335873,349.0834083408343L299.16528729973703,335.4320432043206L304.3990692507116,330.6815681568159L302.35574342053656,341.03260326032625L297.2653527558901,349.63346334633485L295.5446573199532,359.93449344934515L303.25193896008705,370.93559355935616L302.4632868852826,375.93609360936114L296.58424414583175,382.1367136713673L287.40720182083527,378.73637363736395L286.7260932107769,371.6856685668569Z"></path><path id="eastern_samar" class="feature data" style="fill: #EF6548;" d="M380.6832335772449,258.3243324332435L387.9244935368124,261.62466246624683L383.7302984117164,273.02580258025824L384.4114070217747,283.72687268726895L389.2508629353471,292.32773277327755L389.0357760058549,301.5786578657868L377.4927774564453,302.62876287628785L375.8079298420905,284.22692269226945L378.17388606650366,274.0759075907593L372.2948433270527,269.1754175417544L373.9796909414076,257.77427742774296Z"></path><path id="leyte" class="feature data" style="fill: #EF6548;" d="M373.40612579609535,321.83068306830705L365.26867029697735,325.5310531053107L363.90645307686066,335.832083208321L358.49343201797603,338.4823482348237L357.13121479785934,330.5815581558158L360.07073616758476,320.780578057806L359.28208409278045,315.88008800880107L351.2521720584085,307.0292029202922L343.5448904182747,305.1790179017904L344.9071076383914,298.1283128312833L340.4978255838032,287.0272027202722L351.93328066846686,295.4780478047807L363.0102575373103,290.5775577557758L369.24777849258123,305.02900290029027L368.67421334726896,317.8802880288031Z"></path><path id="northern_samar" class="feature data" style="fill: #EF6548;" d="M380.6832335772449,258.3243324332435L373.9796909414076,257.77427742774296L362.0065185330137,260.3245324532455L348.6352810829212,255.92409240924113L343.4373469535286,257.9242924292431L341.0713907291155,247.07320732073228L353.72567174756773,249.1734173417344L373.2985823313493,246.52315231523173L379.07008160605403,250.773577357736Z"></path><path id="samar_(western_samar)" class="feature data" style="fill: #EF6548;" d="M373.9796909414076,257.77427742774296L372.2948433270527,269.1754175417544L378.17388606650366,274.0759075907593L375.8079298420905,284.22692269226945L377.4927774564453,302.62876287628785L372.97595193711106,296.57815781578176L367.41953959189834,296.27812781278146L363.4762792178765,278.27632763276347L355.76899757774265,268.5253525352538L349.9974983030379,266.3751375137516L343.4373469535286,257.9242924292431L348.6352810829212,255.92409240924113L362.0065185330137,260.3245324532455Z"></path><path id="southern_leyte" class="feature data" style="fill: #EF6548;" d="M358.49343201797603,338.4823482348237L363.90645307686066,335.832083208321L365.26867029697735,325.5310531053107L373.40612579609535,321.83068306830705L377.6003209211914,331.4816481648167L363.4762792178765,341.13261326132636Z"></path><path id="bukidnon" class="feature data" style="fill: #EF6548;" d="M378.63990774706986,399.4884488448847L379.85873368085845,409.03940394039427L383.4793636606422,418.790379037904L381.4718856520493,421.84068406840703L383.2642767311502,434.2919291929195L377.70786438593746,437.1922192219224L366.84597444658607,444.5929592959298L362.1140619977598,443.14281428142834L360.2858230970769,437.0922092209223L353.15210660225546,427.54125412541276L352.0408241332128,419.1904190419044L348.52773761817514,416.44014401440165L351.00123730733435,412.9897989798982L353.5105848180756,405.83908390839105L360.8593882423892,405.6890689068909L363.0102575373103,399.4884488448847Z"></path><path id="lanao_del_norte" class="feature data" style="fill: #EF6548;" d="M351.00123730733435,412.9897989798982L348.52773761817514,416.44014401440165L335.7300653133949,421.1906190619064L329.16991396388573,433.64186418641884L322.39467568488436,433.4918491849187L314.00628543469224,428.0913091309133L316.8382633396717,423.6908690869089L326.6964142747265,415.8900890089011L338.3469562888822,413.23982398239843L338.9205214341945,409.43944394439467L347.3806073275506,409.2894289428945Z"></path><path id="misamis_occidental" class="feature data" style="fill: #EF6548;" d="M316.26469819435937,421.1906190619064L312.5365247498296,414.03990399039924L312.5365247498296,398.2883288328835L320.3513498547094,399.0884088408843L323.721045083419,405.6890689068909L324.97571883878965,415.24002400240045Z"></path><path id="misamis_oriental" class="feature data" style="fill: #EF6548;" d="M378.5323642823238,396.43814381438165L378.63990774706986,399.4884488448847L363.0102575373103,399.4884488448847L360.8593882423892,405.6890689068909L353.5105848180756,405.83908390839105L351.00123730733435,412.9897989798982L347.3806073275506,409.2894289428945L338.9205214341945,409.43944394439467L341.6091080528457,401.08860886088627L346.4844117880001,398.1883188318834L357.13121479785934,403.43884388438863L359.7122579517646,390.3875387538756L362.9027140725642,383.6368636863688L370.93262610693614,390.3875387538756L374.91173430254,387.43724372437265L375.4494516262703,380.03650365036526Z"></path><path id="compostela_valley" class="feature data" style="fill: #EF6548;" d="M392.90734073671285,421.84068406840703L413.2689033952988,421.84068406840703L417.678185449887,436.2921292129215L418.1442071304532,449.2434243424344L404.09186107030234,457.2942294229425L399.68257901571417,446.34313431343156L403.98431760555627,434.94199419942015L398.5354487250896,434.94199419942015L393.9110797410093,430.0415041504152Z"></path><path id="davao_del_norte" class="feature data" style="fill: #EF6548;" d="M392.90734073671285,421.84068406840703L393.9110797410093,430.0415041504152L398.5354487250896,434.94199419942015L403.98431760555627,434.94199419942015L399.68257901571417,446.34313431343156L395.05821003163385,448.9933993399342L389.143319470601,450.6935693569359L389.0357760058549,437.1922192219224L377.70786438593746,437.1922192219224L383.2642767311502,434.2919291929195L381.4718856520493,421.84068406840703Z"></path><path id="davao_del_sur" class="feature data" style="fill: #EF6548;" d="M395.05821003163385,448.9933993399342L392.76394945038476,456.14411441144136L388.13958046630455,459.1444144414443L383.1567332664041,467.2452245224525L382.47562465634576,474.79597959796L389.50179768642124,477.9462946294631L395.1657534963799,491.9976997699772L393.122427666205,501.4986498649867L383.6227549469703,515.0000000000002L380.5398422909168,515.0000000000002L386.45473285194964,504.54895489548977L388.92823254110886,495.5480548054808L387.9244935368124,489.04740474047424L377.85125567226544,485.24702470247047L374.2306256924817,480.5965596559658L374.76834301621193,477.4462446244626L373.08349540185714,469.34543454345453L378.2814295312497,461.14461446144634L376.7041253816409,452.6937693769379L377.70786438593746,437.1922192219224L389.0357760058549,437.1922192219224L389.143319470601,450.6935693569359Z"></path><path id="davao_oriental" class="feature data" style="fill: #EF6548;" d="M419.3630330642418,421.84068406840703L420.04414167430014,425.44104410441065L427.3929450986137,432.2917291729175L429.2211839992966,441.2926292629265L426.2816626295712,454.79397939794L419.0404026700036,460.0945094509453L414.73866408016147,473.9958995899592L409.3973386644409,477.796279627963L408.85962134071065,465.3950395039506L404.09186107030234,457.2942294229425L418.1442071304532,449.2434243424344L417.678185449887,436.2921292129215L413.2689033952988,421.84068406840703Z"></path><path id="north_cotabato" class="feature data" style="fill: #EF6548;" d="M360.2858230970769,437.0922092209223L362.1140619977598,443.14281428142834L366.84597444658607,444.5929592959298L377.70786438593746,437.1922192219224L376.7041253816409,452.6937693769379L378.2814295312497,461.14461446144634L373.08349540185714,469.34543454345453L368.9968437415072,470.795579557956L361.5404968524475,468.2953295329535L360.1782796323308,455.9940994099412L354.08414996338786,462.1947194719474L346.26932485850807,456.794179417942L344.9071076383914,448.59335933593377L348.312650688683,443.14281428142834L347.48815079229666,435.34203420342055Z"></path><path id="sarangani" class="feature data" style="fill: #EF6548;" d="M371.72127818174044,500.44854485448565L366.1648658365277,504.14891489148937L342.54115141397824,493.94789478947916L345.48067278370365,490.797579757976L360.07073616758476,497.94829482948313ZM380.5398422909168,515.0000000000002L374.91173430254,506.94919491949213L378.9625381413081,498.9983998399842L377.27769052695317,494.74797479747997L378.854994676562,487.7472747274729L370.6099957126979,484.84698469847007L374.2306256924817,480.5965596559658L377.85125567226544,485.24702470247047L387.9244935368124,489.04740474047424L388.92823254110886,495.5480548054808L386.45473285194964,504.54895489548977Z"></path><path id="south_cotabato" class="feature data" style="fill: #EF6548;" d="M374.76834301621193,477.4462446244626L374.2306256924817,480.5965596559658L370.6099957126979,484.84698469847007L378.854994676562,487.7472747274729L377.27769052695317,494.74797479747997L371.72127818174044,500.44854485448565L360.07073616758476,497.94829482948313L345.48067278370365,490.797579757976L352.82947620801724,485.34703470347057L352.72193274327117,478.1963196319634L358.6009754827221,472.64576457645785L361.75558378193966,477.6962696269629Z"></path><path id="sultan_kudarat" class="feature data" style="fill: #EF6548;" d="M368.9968437415072,470.795579557956L373.08349540185714,469.34543454345453L374.76834301621193,477.4462446244626L361.75558378193966,477.6962696269629L358.6009754827221,472.64576457645785L352.72193274327117,478.1963196319634L352.82947620801724,485.34703470347057L345.48067278370365,490.797579757976L342.54115141397824,493.94789478947916L336.5187173881993,490.3975397539756L330.9981528645686,482.04670467046725L330.9981528645686,469.34543454345453L349.1013027634874,470.795579557956L354.8728020381923,464.5949594959498L362.54423585674397,473.5958595859588Z"></path><path id="agusan_del_norte" class="feature data" style="fill: #EF6548;" d="M397.4241662560471,371.03560356035626L397.31662279130103,373.9358935893591L396.6355141812427,380.43654365436566L392.3337755914006,391.03760376037627L393.33751459569703,394.83798379838004L378.5323642823238,396.43814381438165L375.4494516262703,380.03650365036526L378.7474512118159,384.03690369036923L388.0320370015585,381.4866486648667L385.20005909657914,366.83518351835204L386.45473285194964,366.6851685168519L389.0357760058549,365.8850885088511Z"></path><path id="agusan_del_sur" class="feature data" style="fill: #EF6548;" d="M419.3630330642418,421.84068406840703L413.2689033952988,421.84068406840703L392.90734073671285,421.84068406840703L381.4718856520493,421.84068406840703L383.4793636606422,418.790379037904L379.85873368085845,409.03940394039427L378.63990774706986,399.4884488448847L378.5323642823238,396.43814381438165L393.33751459569703,394.83798379838004L392.3337755914006,391.03760376037627L396.6355141812427,380.43654365436566L397.31662279130103,373.9358935893591L401.7259048458892,382.5367536753677L401.94099177538124,388.63736373637386L406.0276434357313,395.93809380938114L406.4578172947155,404.53895389538974Z"></path><path id="dinagat_islands" class="feature data" style="fill: #EF6548;" d="M392.90734073671285,328.83138313831404L394.12616667050145,342.4827482748277L385.98871117138344,340.73257325732595Z"></path><path id="surigao_del_norte" class="feature data" style="fill: #EF6548;" d="M402.72964385018565,364.83498349835L397.4241662560471,371.03560356035626L389.0357760058549,365.8850885088511L386.45473285194964,366.6851685168519L385.20005909657914,366.83518351835204L382.6907115858379,358.63436343634385L385.41514602607117,352.93379337933817L392.3337755914006,360.4845484548457ZM408.85962134071065,344.0329032903292L412.22931656942035,353.58385838583877L406.8162955105356,355.0340034003402L403.51829592499007,348.83338333833404Z"></path><path id="surigao_del_sur" class="feature data" style="fill: #EF6548;" d="M420.04414167430014,425.44104410441065L419.3630330642418,421.84068406840703L406.4578172947155,404.53895389538974L406.0276434357313,395.93809380938114L401.94099177538124,388.63736373637386L401.7259048458892,382.5367536753677L397.31662279130103,373.9358935893591L397.4241662560471,371.03560356035626L402.72964385018565,364.83498349835L407.7124910500861,374.4859485948597L417.678185449887,385.1870187018704L418.5743809894374,389.2874287428745L409.540729950769,397.0882088208823L410.6520124198115,400.9385938593861L419.829054744808,401.08860886088627L418.1442071304532,408.0893089308933L422.66103264978744,412.73977397739793Z"></path></g></g></svg>